<svg
        version="1.1"
        xmlns="http://www.w3.org/2000/svg"
        x="0px"
        y="0px"
        viewBox="0 0 1000 1000"
        xml:space="preserve"
        class="h-6 w-6"
        fill="none"
        stroke="currentColor"
        stroke-width="2">
    <g>
        <g>
            <path
                    stroke-linecap="round"
                    stroke-linejoin="round"
                    d="M710.6,323H595.9c0-23.4-18.3-43.9-45.6-55.4l70.5-108.5c1.6,0.3,3.2,0.4,4.9,0.4c16.6,0,30-13.5,30-30c0-16.6-13.5-30-30-30c-16.6,0-30.1,13.5-30.1,30c0,6.1,1.8,11.8,5,16.6l-74.3,114.4c-8.4-1.6-17.2-2.5-26.3-2.5c-9.1,0-18,0.9-26.3,2.5L340.1,54.7c2.9-4.5,4.6-9.9,4.6-15.6c0-16-13-29-29-29s-29,13-29,29c0,16,13,29,29,29c1.5,0,2.9-0.1,4.3-0.4l129.8,199.9c-27.4,11.5-45.6,32-45.6,55.4H289.4c-110.8,0-200.5,89.8-200.5,200.5v220.6c0,93.4,63.9,171.9,150.4,194.2c-0.9,16.3-1.4,51.6,11.8,51.6c11.6,0,30.8-27.6,41.9-45.3h414.2c11.1,17.7,30.3,45.3,41.9,45.3c13.1,0,12.7-35.3,11.7-51.6c86.5-22.3,150.4-100.8,150.4-194.2V523.5C911.1,412.8,821.3,323,710.6,323z M669.7,827.5H225.4c-21.8,0-39.4-17.6-39.4-39.4V479.8c0-21.8,17.6-39.4,39.4-39.4h444.3c21.8,0,39.4,17.6,39.4,39.4v308.3C709.1,809.9,691.4,827.5,669.7,827.5z M792.9,757.5c-25.8,0-46.6-20.9-46.6-46.6s20.9-46.6,46.6-46.6c25.8,0,46.6,20.9,46.6,46.6S818.7,757.5,792.9,757.5z M792.9,576.9c-25.8,0-46.6-20.9-46.6-46.6c0-25.8,20.9-46.6,46.6-46.6c25.8,0,46.6,20.9,46.6,46.6C839.5,556.1,818.7,576.9,792.9,576.9z" />
        </g>

    </g>
</svg>